<mxfile host="app.diagrams.net" agent="Mozilla/5.0 (Windows NT 10.0; Win64; x64) AppleWebKit/537.36 (KHTML, like Gecko) Chrome/133.0.0.0 Safari/537.36 Edg/133.0.0.0" version="26.0.16">
  <diagram name="Страница — 1" id="ccjN7xEV1xSVSOFFgk1f">
    <mxGraphModel dx="553" dy="1078" grid="1" gridSize="10" guides="1" tooltips="1" connect="1" arrows="1" fold="1" page="1" pageScale="1" pageWidth="827" pageHeight="1169" math="0" shadow="0">
      <root>
        <mxCell id="0" />
        <mxCell id="1" parent="0" />
        <mxCell id="tfftu0_y_LN10mdet2tk-23" style="edgeStyle=orthogonalEdgeStyle;rounded=0;orthogonalLoop=1;jettySize=auto;html=1;exitX=1;exitY=0.3333333333333333;exitDx=0;exitDy=0;exitPerimeter=0;entryX=0.5;entryY=0;entryDx=0;entryDy=0;" edge="1" parent="1" source="tfftu0_y_LN10mdet2tk-1" target="tfftu0_y_LN10mdet2tk-6">
          <mxGeometry relative="1" as="geometry">
            <Array as="points">
              <mxPoint x="120" y="250" />
              <mxPoint x="120" y="440" />
              <mxPoint x="300" y="440" />
            </Array>
          </mxGeometry>
        </mxCell>
        <mxCell id="tfftu0_y_LN10mdet2tk-32" style="edgeStyle=orthogonalEdgeStyle;rounded=0;orthogonalLoop=1;jettySize=auto;html=1;exitX=1;exitY=0.3333333333333333;exitDx=0;exitDy=0;exitPerimeter=0;entryX=0;entryY=0.5;entryDx=0;entryDy=0;" edge="1" parent="1" source="tfftu0_y_LN10mdet2tk-1" target="tfftu0_y_LN10mdet2tk-24">
          <mxGeometry relative="1" as="geometry" />
        </mxCell>
        <mxCell id="tfftu0_y_LN10mdet2tk-33" style="edgeStyle=orthogonalEdgeStyle;rounded=0;orthogonalLoop=1;jettySize=auto;html=1;exitX=1;exitY=0.3333333333333333;exitDx=0;exitDy=0;exitPerimeter=0;entryX=0;entryY=0.5;entryDx=0;entryDy=0;" edge="1" parent="1" source="tfftu0_y_LN10mdet2tk-1" target="tfftu0_y_LN10mdet2tk-25">
          <mxGeometry relative="1" as="geometry" />
        </mxCell>
        <mxCell id="tfftu0_y_LN10mdet2tk-34" style="edgeStyle=orthogonalEdgeStyle;rounded=0;orthogonalLoop=1;jettySize=auto;html=1;exitX=1;exitY=0.3333333333333333;exitDx=0;exitDy=0;exitPerimeter=0;entryX=0;entryY=0.5;entryDx=0;entryDy=0;" edge="1" parent="1" source="tfftu0_y_LN10mdet2tk-1" target="tfftu0_y_LN10mdet2tk-26">
          <mxGeometry relative="1" as="geometry" />
        </mxCell>
        <mxCell id="tfftu0_y_LN10mdet2tk-35" style="edgeStyle=orthogonalEdgeStyle;rounded=0;orthogonalLoop=1;jettySize=auto;html=1;exitX=1;exitY=0.3333333333333333;exitDx=0;exitDy=0;exitPerimeter=0;entryX=0;entryY=0.5;entryDx=0;entryDy=0;" edge="1" parent="1" source="tfftu0_y_LN10mdet2tk-1" target="tfftu0_y_LN10mdet2tk-29">
          <mxGeometry relative="1" as="geometry" />
        </mxCell>
        <mxCell id="tfftu0_y_LN10mdet2tk-36" style="edgeStyle=orthogonalEdgeStyle;rounded=0;orthogonalLoop=1;jettySize=auto;html=1;exitX=1;exitY=0.3333333333333333;exitDx=0;exitDy=0;exitPerimeter=0;entryX=0;entryY=0.5;entryDx=0;entryDy=0;" edge="1" parent="1" source="tfftu0_y_LN10mdet2tk-1" target="tfftu0_y_LN10mdet2tk-30">
          <mxGeometry relative="1" as="geometry" />
        </mxCell>
        <mxCell id="tfftu0_y_LN10mdet2tk-37" style="edgeStyle=orthogonalEdgeStyle;rounded=0;orthogonalLoop=1;jettySize=auto;html=1;exitX=1;exitY=0.3333333333333333;exitDx=0;exitDy=0;exitPerimeter=0;entryX=0;entryY=0.5;entryDx=0;entryDy=0;" edge="1" parent="1" source="tfftu0_y_LN10mdet2tk-1" target="tfftu0_y_LN10mdet2tk-31">
          <mxGeometry relative="1" as="geometry">
            <Array as="points">
              <mxPoint x="230" y="250" />
              <mxPoint x="230" y="420" />
            </Array>
          </mxGeometry>
        </mxCell>
        <mxCell id="tfftu0_y_LN10mdet2tk-1" value="Администратор" style="shape=umlActor;verticalLabelPosition=bottom;verticalAlign=top;html=1;outlineConnect=0;" vertex="1" parent="1">
          <mxGeometry x="30" y="230" width="30" height="60" as="geometry" />
        </mxCell>
        <mxCell id="tfftu0_y_LN10mdet2tk-20" style="edgeStyle=orthogonalEdgeStyle;rounded=0;orthogonalLoop=1;jettySize=auto;html=1;exitX=1;exitY=0.3333333333333333;exitDx=0;exitDy=0;exitPerimeter=0;entryX=0;entryY=0.5;entryDx=0;entryDy=0;" edge="1" parent="1" source="tfftu0_y_LN10mdet2tk-2" target="tfftu0_y_LN10mdet2tk-3">
          <mxGeometry relative="1" as="geometry" />
        </mxCell>
        <mxCell id="tfftu0_y_LN10mdet2tk-2" value="Покупатель" style="shape=umlActor;verticalLabelPosition=bottom;verticalAlign=top;html=1;outlineConnect=0;" vertex="1" parent="1">
          <mxGeometry x="30" y="580" width="30" height="60" as="geometry" />
        </mxCell>
        <mxCell id="tfftu0_y_LN10mdet2tk-12" style="edgeStyle=orthogonalEdgeStyle;rounded=0;orthogonalLoop=1;jettySize=auto;html=1;exitX=1;exitY=0.5;exitDx=0;exitDy=0;entryX=0;entryY=0.5;entryDx=0;entryDy=0;" edge="1" parent="1" source="tfftu0_y_LN10mdet2tk-3" target="tfftu0_y_LN10mdet2tk-6">
          <mxGeometry relative="1" as="geometry" />
        </mxCell>
        <mxCell id="tfftu0_y_LN10mdet2tk-13" style="edgeStyle=orthogonalEdgeStyle;rounded=0;orthogonalLoop=1;jettySize=auto;html=1;exitX=1;exitY=0.5;exitDx=0;exitDy=0;entryX=0;entryY=0.5;entryDx=0;entryDy=0;" edge="1" parent="1" source="tfftu0_y_LN10mdet2tk-3" target="tfftu0_y_LN10mdet2tk-9">
          <mxGeometry relative="1" as="geometry" />
        </mxCell>
        <mxCell id="tfftu0_y_LN10mdet2tk-14" style="edgeStyle=orthogonalEdgeStyle;rounded=0;orthogonalLoop=1;jettySize=auto;html=1;exitX=1;exitY=0.5;exitDx=0;exitDy=0;entryX=0;entryY=0.5;entryDx=0;entryDy=0;" edge="1" parent="1" source="tfftu0_y_LN10mdet2tk-3" target="tfftu0_y_LN10mdet2tk-10">
          <mxGeometry relative="1" as="geometry" />
        </mxCell>
        <mxCell id="tfftu0_y_LN10mdet2tk-15" style="edgeStyle=orthogonalEdgeStyle;rounded=0;orthogonalLoop=1;jettySize=auto;html=1;exitX=1;exitY=0.5;exitDx=0;exitDy=0;entryX=0;entryY=0.5;entryDx=0;entryDy=0;" edge="1" parent="1" target="tfftu0_y_LN10mdet2tk-5">
          <mxGeometry relative="1" as="geometry">
            <mxPoint x="201" y="600" as="sourcePoint" />
            <mxPoint x="200" y="660" as="targetPoint" />
            <Array as="points">
              <mxPoint x="201" y="601" />
              <mxPoint x="220" y="601" />
              <mxPoint x="220" y="630" />
            </Array>
          </mxGeometry>
        </mxCell>
        <mxCell id="tfftu0_y_LN10mdet2tk-3" value="Регистрация" style="ellipse;whiteSpace=wrap;html=1;" vertex="1" parent="1">
          <mxGeometry x="80" y="580" width="120" height="40" as="geometry" />
        </mxCell>
        <mxCell id="tfftu0_y_LN10mdet2tk-5" value="Отмена заказа" style="ellipse;whiteSpace=wrap;html=1;" vertex="1" parent="1">
          <mxGeometry x="240" y="610" width="120" height="40" as="geometry" />
        </mxCell>
        <mxCell id="tfftu0_y_LN10mdet2tk-6" value="Просмотр каталога товаров" style="ellipse;whiteSpace=wrap;html=1;" vertex="1" parent="1">
          <mxGeometry x="240" y="490" width="120" height="40" as="geometry" />
        </mxCell>
        <mxCell id="tfftu0_y_LN10mdet2tk-8" value="Оплата" style="ellipse;whiteSpace=wrap;html=1;" vertex="1" parent="1">
          <mxGeometry x="440" y="490" width="120" height="40" as="geometry" />
        </mxCell>
        <mxCell id="tfftu0_y_LN10mdet2tk-17" style="edgeStyle=orthogonalEdgeStyle;rounded=0;orthogonalLoop=1;jettySize=auto;html=1;exitX=1;exitY=0.5;exitDx=0;exitDy=0;dashed=1;" edge="1" parent="1" source="tfftu0_y_LN10mdet2tk-9">
          <mxGeometry relative="1" as="geometry">
            <mxPoint x="440" y="570" as="targetPoint" />
          </mxGeometry>
        </mxCell>
        <mxCell id="tfftu0_y_LN10mdet2tk-18" style="edgeStyle=orthogonalEdgeStyle;rounded=0;orthogonalLoop=1;jettySize=auto;html=1;exitX=1;exitY=0.5;exitDx=0;exitDy=0;entryX=0;entryY=0.5;entryDx=0;entryDy=0;dashed=1;" edge="1" parent="1" source="tfftu0_y_LN10mdet2tk-9" target="tfftu0_y_LN10mdet2tk-8">
          <mxGeometry relative="1" as="geometry" />
        </mxCell>
        <mxCell id="tfftu0_y_LN10mdet2tk-42" style="edgeStyle=orthogonalEdgeStyle;rounded=0;orthogonalLoop=1;jettySize=auto;html=1;exitX=1;exitY=0.5;exitDx=0;exitDy=0;entryX=0;entryY=0.5;entryDx=0;entryDy=0;dashed=1;" edge="1" parent="1" source="tfftu0_y_LN10mdet2tk-9" target="tfftu0_y_LN10mdet2tk-41">
          <mxGeometry relative="1" as="geometry" />
        </mxCell>
        <mxCell id="tfftu0_y_LN10mdet2tk-9" value="Создание заказа" style="ellipse;whiteSpace=wrap;html=1;" vertex="1" parent="1">
          <mxGeometry x="241" y="550" width="120" height="40" as="geometry" />
        </mxCell>
        <mxCell id="tfftu0_y_LN10mdet2tk-10" value="Просмотр личных заказов" style="ellipse;whiteSpace=wrap;html=1;" vertex="1" parent="1">
          <mxGeometry x="241" y="670" width="120" height="40" as="geometry" />
        </mxCell>
        <mxCell id="tfftu0_y_LN10mdet2tk-16" value="Выбор количества товара" style="ellipse;whiteSpace=wrap;html=1;" vertex="1" parent="1">
          <mxGeometry x="440" y="550" width="120" height="40" as="geometry" />
        </mxCell>
        <mxCell id="tfftu0_y_LN10mdet2tk-24" value="Добавить товар" style="ellipse;whiteSpace=wrap;html=1;" vertex="1" parent="1">
          <mxGeometry x="439" y="120" width="120" height="40" as="geometry" />
        </mxCell>
        <mxCell id="tfftu0_y_LN10mdet2tk-25" value="Изменить товар" style="ellipse;whiteSpace=wrap;html=1;" vertex="1" parent="1">
          <mxGeometry x="439" y="180" width="120" height="40" as="geometry" />
        </mxCell>
        <mxCell id="tfftu0_y_LN10mdet2tk-26" value="Удалить товар" style="ellipse;whiteSpace=wrap;html=1;" vertex="1" parent="1">
          <mxGeometry x="439" y="230" width="120" height="40" as="geometry" />
        </mxCell>
        <mxCell id="tfftu0_y_LN10mdet2tk-29" value="Просмотр всех заказов" style="ellipse;whiteSpace=wrap;html=1;" vertex="1" parent="1">
          <mxGeometry x="439" y="290" width="120" height="40" as="geometry" />
        </mxCell>
        <mxCell id="tfftu0_y_LN10mdet2tk-30" value="Добавить в чёрных список" style="ellipse;whiteSpace=wrap;html=1;" vertex="1" parent="1">
          <mxGeometry x="440" y="350" width="120" height="40" as="geometry" />
        </mxCell>
        <mxCell id="tfftu0_y_LN10mdet2tk-31" value="Просмотр чёрного списка" style="ellipse;whiteSpace=wrap;html=1;" vertex="1" parent="1">
          <mxGeometry x="440" y="400" width="120" height="40" as="geometry" />
        </mxCell>
        <mxCell id="tfftu0_y_LN10mdet2tk-38" value="include" style="text;html=1;align=center;verticalAlign=middle;resizable=0;points=[];autosize=1;strokeColor=none;fillColor=none;dashed=1;" vertex="1" parent="1">
          <mxGeometry x="384" y="570" width="60" height="30" as="geometry" />
        </mxCell>
        <mxCell id="tfftu0_y_LN10mdet2tk-40" value="include" style="text;html=1;align=center;verticalAlign=middle;resizable=0;points=[];autosize=1;strokeColor=none;fillColor=none;dashed=1;" vertex="1" parent="1">
          <mxGeometry x="390" y="510" width="60" height="30" as="geometry" />
        </mxCell>
        <mxCell id="tfftu0_y_LN10mdet2tk-41" value="Обработка недостатка средств" style="ellipse;whiteSpace=wrap;html=1;" vertex="1" parent="1">
          <mxGeometry x="439" y="620" width="120" height="40" as="geometry" />
        </mxCell>
        <mxCell id="tfftu0_y_LN10mdet2tk-43" value="extend" style="text;html=1;align=center;verticalAlign=middle;resizable=0;points=[];autosize=1;strokeColor=none;fillColor=none;" vertex="1" parent="1">
          <mxGeometry x="390" y="640" width="60" height="30" as="geometry" />
        </mxCell>
      </root>
    </mxGraphModel>
  </diagram>
</mxfile>
